# xmcd
#
# Track frame offsets: 
#        150
#        39054
#        52823
#        69309
#        85742
#        101449
#        114788
#        129189
#        140526
#        158584
#        209771
#        223749
#        243405
#        259997
#        271009
#        283278
#        294875
#        311044
#        331115
#        346860
#
# Disc length: 4798 seconds
#
# Revision: 1
# Processed by: cddbd v1.5.2PL0 Copyright (c) Steve Scherf et al.
# Submitted via: ExactAudioCopy v1.0b1
#
DISCID=1912bc14
DTITLE=Joe Tex - From The Roots...Came The Rapper
DYEAR=2002
DGENRE=Blues
TTITLE0=Oh Me Oh My (I'm A Fool For You, Baby)
TTITLE1=There Is No Business Like Love Business
TTITLE2=The Baby Is Mine
TTITLE3=Some Things In Life Are Worth Dying For
TTITLE4=Hate Yourself In The Morning
TTITLE5=Lovin' (Lovin' Man)
TTITLE6=The Only Way I Know To Love You
TTITLE7=I Can Do It Better
TTITLE8=Chained In The Mind
TTITLE9=I'll Never Fall In Love Again
TTITLE10=All The Heaven A Man Really Needs
TTITLE11=Let's Go Somewhere And Talk
TTITLE12=Under Your Powerful Love
TTITLE13=Trying To Win Your Love 
TTITLE14=A Mother's Prayer
TTITLE15=Rain Go Away 
TTITLE16=For My Woman 
TTITLE17=King Thaddeus
TTITLE18=Lesley
TTITLE19=Papa's Dream
EXTD=CDKEND 216 [Ace/Kent 2002]\nhttp://www.acerecords.co.uk\nhttp://w
EXTD=ww.rockola.net
EXTT0=
EXTT1=
EXTT2=
EXTT3=
EXTT4=
EXTT5=
EXTT6=
EXTT7=
EXTT8=
EXTT9=
EXTT10=
EXTT11=
EXTT12=
EXTT13=
EXTT14=
EXTT15=
EXTT16=
EXTT17=
EXTT18=
EXTT19=
PLAYORDER=
